<svg width="320" height="160" viewBox="0 0 320 160" fill="none" xmlns="http://www.w3.org/2000/svg">
  <rect x="110" y="46" width="100" height="74" rx="10" fill="#16161a" stroke="#34343c" stroke-width="1.5"/>
  <path d="M110 62a10 10 0 0 1 10-10h80a10 10 0 0 1 10 10v6H110v-6z" fill="#a200ff" fill-opacity="0.2"/>
  <line x1="110" y1="68" x2="210" y2="68" stroke="#232328"/>
  <rect x="132" y="40" width="6" height="16" rx="3" fill="#a200ff"/>
  <rect x="182" y="40" width="6" height="16" rx="3" fill="#a200ff"/>
  <rect x="122" y="80" width="14" height="12" rx="3" fill="#232328"/><rect x="146" y="80" width="14" height="12" rx="3" fill="#6b1aa8"/><rect x="170" y="80" width="14" height="12" rx="3" fill="#232328"/>
  <rect x="122" y="98" width="14" height="12" rx="3" fill="#232328"/><rect x="146" y="98" width="14" height="12" rx="3" fill="#a200ff"/><rect x="170" y="98" width="14" height="12" rx="3" fill="#232328"/>
  <circle cx="196" cy="58" r="15" fill="#a200ff"/>
  <path d="M196 50a6 6 0 0 0-6 6c0 6-3 7-3 7h18s-3-1-3-7a6 6 0 0 0-6-6z" fill="#f3e3ff"/>
  <circle cx="196" cy="66" r="2.5" fill="#f3e3ff"/>
</svg>
