<svg width="320" height="160" viewBox="0 0 320 160" fill="none" xmlns="http://www.w3.org/2000/svg">
  <!-- browser window -->
  <rect x="40" y="24" width="240" height="118" rx="10" fill="#0a0a0b" stroke="#34343c" stroke-width="1.5"/>
  <!-- title bar -->
  <path d="M40 34a10 10 0 0 1 10-10h220a10 10 0 0 1 10 10v14H40V34z" fill="#16161a"/>
  <line x1="40" y1="48" x2="280" y2="48" stroke="#232328" stroke-width="1.5"/>
  <!-- traffic lights -->
  <circle cx="56" cy="36" r="3.5" fill="#34343c"/>
  <circle cx="68" cy="36" r="3.5" fill="#34343c"/>
  <circle cx="80" cy="36" r="3.5" fill="#a200ff"/>
  <!-- address bar -->
  <rect x="96" y="31" width="170" height="10" rx="5" fill="#0a0a0b" stroke="#232328"/>
  <!-- left content tile -->
  <rect x="56" y="64" width="80" height="62" rx="6" fill="#16161a" stroke="#232328"/>
  <rect x="64" y="100" width="64" height="6" rx="3" fill="#34343c"/>
  <rect x="64" y="112" width="40" height="6" rx="3" fill="#232328"/>
  <!-- accent hero block -->
  <rect x="148" y="64" width="116" height="30" rx="6" fill="#a200ff" fill-opacity="0.16" stroke="#6b1aa8"/>
  <rect x="160" y="75" width="62" height="8" rx="4" fill="#a200ff"/>
  <!-- text rows -->
  <rect x="148" y="104" width="116" height="7" rx="3.5" fill="#232328"/>
  <rect x="148" y="117" width="86" height="7" rx="3.5" fill="#232328"/>
</svg>
